<svg width="251" height="64" viewBox="0 0 251 64" fill="none" xmlns="http://www.w3.org/2000/svg">
<path d="M85.3858 28.6333L85.3851 28.6331C85.2745 28.6043 85.1645 28.5758 85.0552 28.5474C83.4646 28.1347 82.0199 27.7598 80.9402 27.179C80.3725 26.8736 79.9378 26.5268 79.6447 26.1161C79.3569 25.7128 79.1869 25.222 79.1869 24.5889C79.1869 23.5001 79.6443 22.5516 80.5071 21.8643C81.3781 21.1704 82.6929 20.721 84.4226 20.721C87.0675 20.721 88.9625 21.6613 90.4608 23.3571L90.7797 23.718L91.1523 23.4129L92.865 22.0104L93.2619 21.6854L92.9268 21.2969C90.9856 19.0468 87.8511 17.7174 84.4226 17.7174C79.3302 17.7174 75.9165 20.8304 75.9165 24.6289C75.9165 26.9628 76.9862 28.4827 78.5455 29.514C80.0661 30.5197 82.0589 31.0666 83.9427 31.5255C84.0822 31.5614 84.2209 31.5969 84.3587 31.6322C85.94 32.0368 87.3978 32.4099 88.5 32.9948C89.0901 33.308 89.5455 33.6664 89.8535 34.094C90.1561 34.514 90.3355 35.0266 90.3355 35.6888C90.3355 36.85 89.8679 37.9421 88.9264 38.7507C87.9815 39.5623 86.5231 40.1177 84.5023 40.1177C81.4921 40.1177 78.9669 38.565 77.4972 36.5557L77.1881 36.1331L76.7801 36.4614L74.9877 37.904L74.6172 38.2022L74.8966 38.5872C76.8275 41.2477 80.3271 43.1614 84.4625 43.1614C87.556 43.1614 89.8464 42.2047 91.3676 40.7712C92.8847 39.3417 93.6059 37.4656 93.6059 35.6888C93.6059 33.272 92.4935 31.7314 90.8884 30.691C89.325 29.6777 87.2806 29.1297 85.3858 28.6333ZM120.324 42.4762L120.473 42.6805H120.727H123.395H124.383L123.799 41.8847L114.049 28.5986L123.159 19.0841L123.969 18.2383H122.798H119.89H119.676L119.529 18.3931L106.848 31.676V12.5272V12.0272H106.348H104.117H103.617V12.5272V42.1805V42.6805H104.117H106.348H106.848V42.1805V35.8097L111.714 30.7343L120.324 42.4762ZM137.732 52.795L137.415 53.5H138.188H140.658H140.983L141.115 53.2029L156.33 18.9413L156.642 18.2383H155.873H153.404H153.077L152.946 18.5382L144.864 37.0396L140.772 28.2842L136.211 18.5266L136.077 18.2383H135.758H133.209H132.42L132.757 18.9517L143.095 40.8632L137.732 52.795ZM176.576 43.1614C180.128 43.1614 183.086 41.5766 184.918 39.1561V42.1805V42.6805H185.418H187.649H188.149V42.1805V18.7383V18.2383H187.649H185.378H184.878V18.7383V31.882C184.878 36.533 181.32 40.0376 176.735 40.0376C174.218 40.0376 172.277 39.2252 170.964 37.8394C169.647 36.45 168.91 34.4299 168.91 31.9221V18.7383V18.2383H168.41H166.1H165.6V18.7383V31.882C165.6 35.3255 166.616 38.1567 168.529 40.1293C170.444 42.1038 173.203 43.1614 176.576 43.1614ZM213.392 42.1805V42.6805H213.892H216.162H216.662V42.1805V18.7383V18.2383H216.162H213.892H213.392V18.7383V42.1805ZM196.309 40.6177C196.309 41.2921 196.538 41.9126 196.977 42.3675C197.419 42.8249 198.041 43.0812 198.761 43.0812C199.48 43.0812 200.103 42.8249 200.544 42.3675C200.984 41.9126 201.212 41.2921 201.212 40.6177C201.212 39.9423 200.983 39.3289 200.539 38.8827C200.095 38.4356 199.473 38.1943 198.761 38.1943C197.38 38.1943 196.309 39.2088 196.309 40.6177ZM212.595 10.9235C212.595 11.5978 212.824 12.2184 213.263 12.6733C213.705 13.1307 214.327 13.387 215.047 13.387C215.767 13.387 216.389 13.1307 216.83 12.6733C217.27 12.2184 217.499 11.5978 217.499 10.9235C217.499 10.2481 217.269 9.63464 216.825 9.18848C216.381 8.74137 215.759 8.5 215.047 8.5C213.666 8.5 212.595 9.51454 212.595 10.9235ZM237.891 43.1614C244.86 43.1614 250.5 37.5672 250.5 30.4795C250.5 23.3528 244.861 17.7575 237.891 17.7575C230.881 17.7575 225.282 23.3538 225.282 30.4795C225.282 37.5661 230.882 43.1614 237.891 43.1614ZM237.891 40.0376C232.685 40.0376 228.593 35.7881 228.593 30.4795C228.593 25.1294 232.686 20.8813 237.891 20.8813C243.055 20.8813 247.15 25.128 247.15 30.4795C247.15 35.7895 243.056 40.0376 237.891 40.0376Z" fill="white" stroke="white"/>
<rect width="64.257" height="64" rx="8" fill="white"/>
<path d="M18.2954 34.6666V29.3333H23.6502" stroke="#0683DE" stroke-width="2" stroke-miterlimit="10" stroke-linecap="round"/>
<path d="M38.822 49.3333L18.2954 29.3333" stroke="#0683DE" stroke-width="2" stroke-miterlimit="10" stroke-linecap="round"/>
<path d="M49.5315 43.5555V48.8889H44.1768" stroke="#0683DE" stroke-width="2" stroke-miterlimit="10" stroke-linecap="round"/>
<path d="M49.5315 48.8888L39.2589 38.8494L25.8813 25.7777" stroke="#0683DE" stroke-width="2" stroke-miterlimit="10" stroke-linecap="round"/>
<path d="M29.0049 40H19.4564C14.6252 40 10.7095 36.1221 10.7095 31.3375C10.7095 26.5529 14.6315 22.4557 19.4564 22.675C20.4585 22.721 21.4501 22.9425 22.3847 23.3123C23.6167 23.7991 24.7539 24.545 25.6885 25.4873" stroke="#0683DE" stroke-width="2" stroke-miterlimit="10" stroke-linecap="round"/>
<path d="M22.3115 23.2287C23.9669 18.2553 28.6942 14.6666 34.267 14.6666C41.2183 14.6666 46.8541 20.2513 46.8541 27.1397C46.8541 27.279 46.852 27.4162 46.8457 27.5555" stroke="#0683DE" stroke-width="2" stroke-miterlimit="10" stroke-linecap="round"/>
<path d="M46.6649 27.6121C46.9317 27.5744 47.207 27.5555 47.4844 27.5555C50.8326 27.5555 53.5475 30.2422 53.5475 33.5555C53.5475 36.8688 50.8326 39.5555 47.4844 39.5555H39.7144" stroke="#0683DE" stroke-width="2" stroke-miterlimit="10" stroke-linecap="round"/>
</svg>
