<svg width="182" height="182" viewBox="0 0 182 182" fill="none" xmlns="http://www.w3.org/2000/svg">
<circle cx="91" cy="91" r="91" fill="#1695F1"/>
<path fill-rule="evenodd" clip-rule="evenodd" d="M60.8577 62.0171C58.9996 61.5526 57.0913 61.2659 55.1627 61.1779C39.2826 60.4594 26.6543 73.813 26.6543 89.1372C26.6543 104.615 39.3755 117.1 54.9969 117.1H81.1889L107.212 142.329C108.643 143.716 110.934 143.687 112.328 142.263C113.723 140.839 113.693 138.559 112.262 137.172L60.6132 87.1004H66.8513C68.8495 87.1004 70.4694 85.4887 70.4694 83.5004C70.4694 81.5122 68.8495 79.9004 66.8513 79.9004H48.0971V98.5004C48.0971 100.489 49.717 102.1 51.7152 102.1C53.7134 102.1 55.3333 100.489 55.3333 98.5004V92.0344L73.7621 109.9H54.9969C43.3057 109.9 33.8906 100.573 33.8906 89.1372C33.8906 77.548 43.4358 67.8548 54.8325 68.3704C57.2441 68.4806 59.6535 69.0125 61.9429 69.9138C64.9054 71.0785 67.6471 72.8533 69.9069 75.0823C70.0839 75.4424 70.3248 75.779 70.6294 76.0751L108.754 113.144C110 114.334 110 114.334 111.443 115.758L131.13 134.9H124.873C122.875 134.9 121.255 136.512 121.255 138.5C121.255 140.489 122.875 142.1 124.873 142.1H143.627V123.5C143.627 121.512 142.007 119.9 140.009 119.9C138.011 119.9 136.391 121.512 136.391 123.5V129.949L121.891 115.85H134.223C145.649 115.85 154.979 106.718 154.979 95.3754C154.979 84.623 146.595 75.8564 135.988 74.9735C134.753 54.6825 117.678 38.6504 96.8616 38.6504C80.7376 38.6504 66.8729 48.2603 60.8577 62.0171ZM67.6229 64.5969C70.4018 66.0503 72.9665 67.9261 75.1818 70.1485C75.4657 70.4333 75.6919 70.7534 75.8606 71.0945L114.486 108.65H134.223C141.724 108.65 147.743 102.67 147.743 95.3754C147.743 88.0804 141.724 82.1004 134.223 82.1004C133.601 82.1004 132.992 82.1426 132.413 82.2241C130.434 82.5024 128.603 81.1321 128.324 79.1635C128.201 78.3031 128.396 77.4709 128.818 76.7832C128.522 59.6802 114.357 45.8504 96.8616 45.8504C83.8011 45.8504 72.583 53.5631 67.6229 64.5969Z" fill="white"/>
</svg>
