<svg width="48" height="48" viewBox="0 0 48 48" fill="none" xmlns="http://www.w3.org/2000/svg">
<rect width="48" height="48" rx="8" fill="#1695F1"/>
<path d="M13.6667 26V22H17.6667" stroke="white" stroke-width="2" stroke-miterlimit="10" stroke-linecap="round"/>
<path d="M29 37L13.6667 22" stroke="white" stroke-width="2" stroke-miterlimit="10" stroke-linecap="round"/>
<path d="M37 32.6667V36.6667H33" stroke="white" stroke-width="2" stroke-miterlimit="10" stroke-linecap="round"/>
<path d="M37 36.6667L29.3263 29.1371L19.3333 19.3333" stroke="white" stroke-width="2" stroke-miterlimit="10" stroke-linecap="round"/>
<path d="M21.6667 30H14.5339C10.925 30 8 27.0916 8 23.5032C8 19.9147 10.9297 16.8418 14.5339 17.0063C15.2825 17.0408 16.0232 17.2069 16.7213 17.4843C17.6417 17.8494 18.4911 18.4088 19.1893 19.1155" stroke="white" stroke-width="2" stroke-miterlimit="10" stroke-linecap="round"/>
<path d="M16.6667 17.4216C17.9033 13.6915 21.4346 11 25.5975 11C30.7901 11 35 15.1885 35 20.3548C35 20.4593 34.9985 20.5622 34.9938 20.6667" stroke="white" stroke-width="2" stroke-miterlimit="10" stroke-linecap="round"/>
<path d="M34.8587 20.7091C35.058 20.6808 35.2636 20.6667 35.4709 20.6667C37.972 20.6667 40 22.6817 40 25.1667C40 27.6517 37.972 29.6667 35.4709 29.6667H29.6667" stroke="white" stroke-width="2" stroke-miterlimit="10" stroke-linecap="round"/>
</svg>
