<svg width="203" height="61" viewBox="0 0 203 61" fill="none" xmlns="http://www.w3.org/2000/svg">
<path d="M82.8049 30.1566L82.8042 30.1564C82.7263 30.1352 82.649 30.1142 82.5722 30.0933C81.4126 29.778 80.3837 29.4982 79.6182 29.0669C79.22 28.8425 78.9227 28.5921 78.7243 28.3009C78.5302 28.0159 78.4121 27.6651 78.4121 27.2033C78.4121 26.4056 78.7313 25.719 79.3252 25.2235C79.9257 24.7224 80.8419 24.3895 82.0667 24.3895C83.9345 24.3895 85.2676 25.0811 86.3296 26.34L86.6546 26.7254L87.0373 26.3972L88.2779 25.3331L88.6499 25.014L88.3383 24.6357C86.9049 22.8953 84.592 21.8694 82.0667 21.8694C78.3017 21.8694 75.7676 24.2867 75.7676 27.2337C75.7676 29.0399 76.561 30.2284 77.7248 31.0346C78.8497 31.814 80.3174 32.234 81.6802 32.5818C81.7795 32.6085 81.8781 32.635 81.9759 32.6612C83.1273 32.97 84.1653 33.2483 84.9469 33.6828C85.3613 33.9132 85.6733 34.1725 85.8824 34.4764C86.087 34.7739 86.2118 35.1411 86.2118 35.6248C86.2118 36.4799 85.8833 37.2766 85.2305 37.8639C84.5763 38.4525 83.5575 38.8643 82.1244 38.8643C80.0027 38.8643 78.2137 37.7177 77.168 36.2202L76.8545 35.7712L76.4358 36.1242L75.1375 37.2187L74.7897 37.5118L75.0488 37.8857C76.4705 39.9376 79.0485 41.4148 82.0956 41.4148C84.3722 41.4148 86.0698 40.6761 87.2001 39.5605C88.3247 38.4506 88.8563 36.9975 88.8563 35.6248C88.8563 33.7552 88.0314 32.5507 86.834 31.7377C85.6784 30.9531 84.1728 30.532 82.8049 30.1566ZM107.953 40.8367L108.103 41.05H108.363H110.296H111.257L110.706 40.2631L103.694 30.2546L110.232 23.102L110.998 22.2646H109.863H107.757H107.536L107.388 22.4278L98.4477 32.2362V18.0522V17.5522H97.9477H96.332H95.832V18.0522V40.55V41.05H96.332H97.9477H98.4477V40.55V35.7583L101.819 32.0747L107.953 40.8367ZM120.551 48.5615L120.252 49.2586H121.011H122.8H123.131L123.26 48.9538L134.281 22.9598L134.576 22.2646H133.821H132.032H131.699L131.571 22.5722L125.842 36.3087L123.011 29.9638L119.708 22.5608L119.575 22.2646H119.251H117.404H116.631L116.949 22.9699L124.417 39.5516L120.551 48.5615ZM148.816 41.4148C151.284 41.4148 153.36 40.3304 154.721 38.6512V40.55V41.05H155.221H156.837H157.337V40.55V22.7646V22.2646H156.837H155.192H154.692V22.7646V32.7366C154.692 36.2203 152.155 38.8035 148.932 38.8035C147.146 38.8035 145.782 38.2017 144.859 37.1819C143.931 36.1557 143.402 34.6524 143.402 32.767V22.7646V22.2646H142.902H141.228H140.728V22.7646V32.7366C140.728 35.3666 141.469 37.5444 142.881 39.0693C144.298 40.5991 146.337 41.4148 148.816 41.4148ZM175.346 40.55V41.05H175.846H177.49H177.99V40.55V22.7646V22.2646H177.49H175.846H175.346V22.7646V40.55ZM162.972 39.3643C162.972 39.8967 163.144 40.3959 163.487 40.7673C163.833 41.1429 164.323 41.354 164.886 41.354C165.448 41.354 165.938 41.1429 166.285 40.7673C166.627 40.3959 166.799 39.8967 166.799 39.3643C166.799 38.831 166.626 38.3364 166.28 37.9712C165.93 37.603 165.441 37.405 164.886 37.405C163.791 37.405 162.972 38.248 162.972 39.3643ZM174.769 18.8731C174.769 19.4055 174.941 19.9048 175.283 20.2761C175.629 20.6517 176.12 20.8628 176.682 20.8628C177.245 20.8628 177.735 20.6517 178.081 20.2761C178.424 19.9048 178.596 19.4055 178.596 18.8731C178.596 18.3399 178.423 17.8452 178.076 17.48C177.727 17.1119 177.237 16.9138 176.682 16.9138C175.587 16.9138 174.769 17.7568 174.769 18.8731ZM193.229 41.4148C198.375 41.4148 202.5 37.0942 202.5 31.6725C202.5 26.2214 198.376 21.8998 193.229 21.8998C188.053 21.8998 183.958 26.2225 183.958 31.6725C183.958 37.0931 188.054 41.4148 193.229 41.4148ZM193.229 38.8035C189.56 38.8035 186.632 35.6595 186.632 31.6725C186.632 27.6538 189.561 24.5111 193.229 24.5111C196.867 24.5111 199.798 27.6524 199.798 31.6725C199.798 35.6608 196.869 38.8035 193.229 38.8035Z" fill="white" stroke="white"/>
<rect width="60.3678" height="60.3678" rx="8" fill="white"/>
<path d="M19.5965 21.57C20.2428 21.57 20.8714 21.6466 21.488 21.794C21.488 21.794 22.2886 21.9885 23.095 22.3776C23.9014 22.7666 24.6426 23.2912 25.2771 23.9278L25.876 24.529L37.178 35.7639L38.8679 37.4439L43.4397 41.9885V39.4951H45.1356V44.865H39.7337V43.1792H42.236L23.8658 24.9181C23.2492 24.3463 22.5139 23.9042 21.7252 23.6213L21.7074 23.6154C21.0315 23.3796 20.3258 23.2558 19.6024 23.2558C16.1335 23.2558 13.311 26.0616 13.311 29.5099C13.311 32.9523 16.1217 35.758 19.5846 35.7639H25.3661L19.4304 29.8636V32.3569H17.7346V26.987H23.1306V28.6729H20.6223L36.9171 44.8709H34.5215L27.056 37.4498H19.5787C15.1848 37.438 11.6092 33.8777 11.6092 29.5099C11.6092 25.1303 15.1907 21.57 19.5965 21.57Z" fill="#202840" stroke="#11172C" stroke-width="0.5"/>
<path d="M42.8349 37.4439C46.1021 37.4144 48.7586 34.7501 48.7586 31.5022C48.7586 28.3015 46.2029 25.6843 43.0128 25.5606C42.6451 19.725 37.7531 15.0919 31.7938 15.0919C27.311 15.0919 23.2669 17.7563 21.488 21.794C20.8714 21.6466 20.2428 21.57 19.5965 21.57C15.1907 21.57 11.6092 25.1303 11.6092 29.5099C11.6092 33.8777 15.1848 37.438 19.5787 37.4497H27.056L34.5215 44.8709H36.9171L20.6223 28.6729H23.1306V26.987H17.7346V32.3569H19.4304V29.8635L25.366 35.7639H19.5846C16.1217 35.758 13.311 32.9523 13.311 29.5099C13.311 26.0616 16.1335 23.2558 19.6024 23.2558C20.3258 23.2558 21.0315 23.3796 21.7074 23.6154L21.7252 23.6213C22.5139 23.9042 23.2492 24.3463 23.8658 24.9181L42.236 43.1792H39.7337V44.865H45.1356V39.4951H43.4397V41.9885L38.8679 37.4439H42.8349ZM37.178 35.7639L25.876 24.529L25.2771 23.9278C24.6426 23.2912 23.9014 22.7666 23.095 22.3775C24.6248 19.0059 28.0285 16.7896 31.7997 16.7896C37.0653 16.7896 41.3465 21.0454 41.3465 26.2797C41.3465 26.3151 41.3465 26.3563 41.3465 26.3917L41.3287 27.3879L42.2893 27.2759C42.4613 27.2582 42.6273 27.2464 42.7874 27.2464C45.1474 27.2464 47.0687 29.1562 47.0687 31.5022C47.0687 33.8246 45.1652 35.7345 42.8349 35.758L37.178 35.7639Z" fill="#0683DE" stroke="#0683DE" stroke-width="0.5"/>
<path d="M19.5965 21.6225C20.2428 21.6225 20.8714 21.6991 21.488 21.8464L23.095 22.43C23.9014 22.819 24.6426 23.3436 25.2771 23.9802L25.876 24.5815L37.178 35.8164L38.8679 37.4963L43.4397 42.041V39.5476H45.1356V44.9175H39.7337V43.2316H42.236L23.8658 24.9705C23.2492 24.3988 22.5139 23.9567 21.7252 23.6737L21.7074 23.6678C21.0315 23.4321 20.3258 23.3083 19.6024 23.3083C16.1335 23.3083 13.311 26.1141 13.311 29.5623C13.311 33.0047 16.1217 35.8105 19.5846 35.8164H25.3661L19.4304 29.916V32.4094H17.7346V27.0395H23.1306V28.7253H20.6223L36.9171 44.9234H34.5215L27.056 37.5022H19.5787C15.1848 37.4904 11.6092 33.9301 11.6092 29.5623C11.6092 25.1827 15.1907 21.6225 19.5965 21.6225Z" fill="#0683DE" stroke="#0683DE" stroke-width="0.5"/>
</svg>
